<svg xmlns="http://www.w3.org/2000/svg" xml:space="preserve" width="500.67221" height="100" viewBox="0 0 500.6722 100"><path d="M168.95 320.748h25.653v74.822H168.95ZM209.127 395.57h-7.04v-74.824h7.04c20.903 0 37.853 16.75 37.853 37.413 0 20.662-16.95 37.411-37.853 37.411M254.463 320.748h25.653v74.824h-25.653zM332.491 346.4h-44.893v-25.652h44.893ZM366.47 384.399c-.142 1.182-.569 6.004-5.532 6.004-5.439 0-7.708-5.674-7.708-12.72 0-2.032 0-11.725 7.14-11.725 3.073 0 6.004 1.938 6.147 6.477h7.707c-.141-2.033-.33-5.2-3.073-8.038-3.025-3.12-6.854-3.83-9.978-3.83-11.774 0-15.604 8.699-15.604 17.163 0 10.828 6.053 18.016 15.652 18.016 7.472 0 12.72-4.539 12.72-11.347zM378.29 395.51h6.95v-13.523c.806 1.135 2.557 3.595 6.907 3.595 3.546 0 5.815-1.75 6.95-3.217.85-1.182 1.56-3.358 1.56-6.478V361.37h-6.95v14.28c0 1.371 0 5.201-3.925 5.201-1.985 0-4.493-1.135-4.493-4.87l.048-14.611h-7.047zM421.037 375.934c0 1.09-.096 5.344-4.16 5.344-3.074 0-4.353-2.554-4.494-5.344zm-8.889-4.398c0-1.56 0-6.381 4.87-6.381 1.75 0 3.5.66 4.162 3.309h6.384c-.096-1.135-.334-3.17-2.27-5.203-1.752-1.844-4.87-2.788-8.37-2.788-2.033 0-5.91.376-8.417 2.977-2.174 2.271-3.072 5.485-3.072 9.315 0 3.879.942 8.513 4.963 11.303 1.845 1.229 4.113 1.986 6.713 1.986 3.407 0 7.474-1.326 9.646-5.771 1.611-3.26 1.514-6.761 1.422-8.747zM432.481 380.758c0 1.511-.096 2.978-.24 4.49h6.767l.234-3.072c.758 1.042 2.602 3.593 7.376 3.593 5.486 0 7.045-3.355 7.52-4.492 1.985 3.83 5.2 4.444 7.66 4.444 4.822 0 6.761-2.882 7.282-3.83 1.274-2.079 1.182-4.962 1.182-7.045V361.37h-7.045v14.045c0 2.553-.38 5.39-4.02 5.39-4.21 0-4.306-3.924-4.306-7.471V361.37h-7.045v14.186c0 1.844-.044 5.248-3.922 5.248-4.397 0-4.397-3.78-4.397-5.39V361.37h-7.046zM475.32 385.296h7v-23.923h-7zm-.236 10.213h7.472v-6.099h-7.472zM500.619 376.786c-.097.852-.378 4.398-3.073 4.398-3.312 0-3.688-5.014-3.688-7.613 0-1.326.141-5.577 1.749-7.33.663-.71 1.37-.804 1.891-.804.758 0 2.932.331 3.216 4.586h6.904c-.095-1.844-.332-4.728-3.074-7.045-1.702-1.465-3.83-2.222-6.809-2.222-3.171 0-5.961.71-8.134 3.168-2.082 2.413-3.026 5.579-3.026 9.408 0 10.878 7.989 12.39 11.16 12.39 4.444 0 9.692-2.46 9.74-8.936zM517.358 368.747c0-1.608 1.088-3.403 3.405-3.403 1.277 0 2.314.612 2.979 1.37 1.23 1.514 1.322 3.358 1.322 5.91-4.49.38-7.706-1.038-7.706-3.877m8.606-7.377c-.235 1.466-.235 2.553-.235 3.264-2.652-3.83-5.817-3.83-7.142-3.83-3.452 0-5.014.994-5.958 1.89-1.417 1.418-2.08 3.358-2.08 5.251 0 1.889.663 5.388 5.06 7.421 2.932 1.326 7.14 1.326 9.455 1.326 0 1.561-.046 2.315-.33 3.169-.615 1.747-2.459 1.985-3.12 1.985-.996 0-2.032-.427-2.648-1.325-.52-.803-.52-1.562-.52-2.127h-6.858c.049 1.275.192 3.83 2.696 5.627 2.176 1.558 4.963 1.938 7.234 1.938 1.987 0 6.145-.332 8.513-3.075 1.605-1.936 1.656-4.775 1.656-5.862l.046-9.6c0-2.03.143-4.064.568-6.052zM537.453 395.557h7.001v-34.184h-7z" style="fill:#0a2240;fill-opacity:1;fill-rule:nonzero;stroke:none;stroke-width:1.64221" transform="matrix(1.33333 0 0 -1.33333 -225.267 527.662)"/></svg>